<?xml version="1.0" encoding="utf-8"?>
<!-- Generator: Adobe Illustrator 26.0.2, SVG Export Plug-In . SVG Version: 6.00 Build 0)  -->
<svg version="1.1" id="Capa_1" xmlns="http://www.w3.org/2000/svg" xmlns:xlink="http://www.w3.org/1999/xlink" x="0px" y="0px"
	 width="137px" height="56.9px" viewBox="0 0 137 56.9" style="enable-background:new 0 0 137 56.9;" xml:space="preserve">
<style type="text/css">
	.st0{fill:#FFFFFF;}
	.st1{fill-rule:evenodd;clip-rule:evenodd;fill:#FD1A30;}
</style>
<g>
	<g>
		<path class="st0" d="M0.6,41.2v-7.5h0.8v7.4c0,1.8,0.6,2.8,2.6,2.8s2.6-1.1,2.6-2.8v-7.4h0.8v7.5c0,2.2-1,3.4-3.4,3.4
			C1.6,44.7,0.6,43.4,0.6,41.2z"/>
		<path class="st0" d="M15.3,44.6v-5.8c0-1.4-0.6-2.1-1.9-2.1c-1.1,0-2,0.7-2.5,1.1v6.8h-0.8v-8.5h0.6l0.1,1.1
			c0.4-0.4,1.4-1.3,2.8-1.3c2,0,2.4,1.4,2.4,3v5.6H15.3z"/>
		<path class="st0" d="M23.5,43.4c-0.4,0.7-1.3,1.3-2.5,1.3c-1.7,0-2.6-1-2.6-2.4c0-2.4,2.5-3.2,5.1-3.2v-0.7c0-1.2-0.7-1.8-2.1-1.8
			c-0.9,0-1.6,0.3-2.4,0.6l-0.2-0.6c0.7-0.4,1.6-0.7,2.6-0.7c1.9,0,2.8,1,2.8,2.7v5.9h-0.6L23.5,43.4z M23.4,42.5v-2.8
			c-2.3,0-4.3,0.6-4.3,2.6c0,1.1,0.8,1.7,2,1.7C22.3,44,23.2,43.2,23.4,42.5z"/>
		<path class="st0" d="M30.8,41.4v-2.3c0-2,0.9-3.3,3-3.3c1.3,0,2,0.6,2.5,1.3l-0.5,0.4c-0.6-0.7-1.1-1-2-1c-1.8,0-2.2,1.1-2.2,3
			v1.7c0,1.6,0.5,2.6,2.2,2.6c0.9,0,1.4-0.3,2-1l0.5,0.4c-0.6,0.8-1.3,1.2-2.5,1.2C31.7,44.7,30.8,43.4,30.8,41.4z"/>
		<path class="st0" d="M37.9,41.4v-2.3c0-2,0.9-3.3,3-3.3c2.1,0,2.9,1.2,2.9,3.3v2.3c0,2-0.8,3.2-2.9,3.2
			C38.8,44.7,37.9,43.4,37.9,41.4z M43.1,41v-1.7c0-1.7-0.5-2.6-2.2-2.6c-1.8,0-2.2,1.1-2.2,3v1.7c0,1.6,0.5,2.6,2.2,2.6
			C42.6,44,43.1,42.9,43.1,41z"/>
		<path class="st0" d="M51.2,44.6v-5.8c0-1.4-0.5-2.1-1.8-2.1c-1.1,0-2,0.7-2.5,1.1v6.8h-0.8v-8.5h0.6l0.1,1.1
			c0.4-0.4,1.4-1.3,2.8-1.3c1.1,0,1.7,0.5,2,1.3c0.4-0.4,1.5-1.3,2.9-1.3c1.8,0,2.3,1.4,2.3,3v5.6h-0.8v-5.8c0-1.4-0.5-2.1-1.8-2.1
			c-1.1,0-1.9,0.7-2.4,1.1c0.1,0.4,0.1,0.7,0.1,1.1v5.6H51.2z"/>
		<path class="st0" d="M60.3,37.1c0.4-0.5,1.3-1.1,2.5-1.1c1.8,0,2.7,1.2,2.7,3.2v2.5c0,2-0.9,3.2-2.7,3.2c-1.2,0-2-0.6-2.4-1.1v4.1
			h-0.8V36.1h0.6L60.3,37.1z M64.7,41.5v-2.3c0-1.7-0.6-2.5-2.2-2.5c-1,0-1.7,0.5-2.2,1.1v5.2c0.5,0.6,1.2,1.1,2.2,1.1
			C64.1,44,64.7,43.1,64.7,41.5z"/>
		<path class="st0" d="M72.5,43.4c-0.4,0.7-1.3,1.3-2.5,1.3c-1.7,0-2.6-1-2.6-2.4c0-2.4,2.5-3.2,5.1-3.2v-0.7c0-1.2-0.7-1.8-2.1-1.8
			c-0.9,0-1.6,0.3-2.4,0.6l-0.2-0.6c0.7-0.4,1.6-0.7,2.6-0.7c1.9,0,2.8,1,2.8,2.7v5.9h-0.6L72.5,43.4z M72.5,42.5v-2.8
			c-2.3,0-4.3,0.6-4.3,2.6c0,1.1,0.8,1.7,2,1.7C71.3,44,72.3,43.2,72.5,42.5z"/>
		<path class="st0" d="M81.1,44.6v-5.8c0-1.4-0.6-2.1-1.9-2.1c-1.1,0-2,0.7-2.5,1.1v6.8h-0.8v-8.5h0.6l0.1,1.1
			c0.4-0.4,1.4-1.3,2.8-1.3c2,0,2.4,1.4,2.4,3v5.6H81.1z M77.8,33.8c-0.4,0-0.7,0.4-0.9,0.7l-0.5-0.2c0.4-0.9,0.8-1.2,1.4-1.2
			c0.9,0,1.4,0.8,2,0.8c0.4,0,0.6-0.2,0.9-0.8l0.5,0.2c-0.4,0.9-0.8,1.2-1.4,1.2C79,34.7,78.5,33.8,77.8,33.8z"/>
		<path class="st0" d="M86.2,32.4L85,35h-0.6l0.9-2.5H86.2z M84.6,36.1h0.8v8.5h-0.8V36.1z"/>
		<path class="st0" d="M92.8,43.4c-0.4,0.7-1.3,1.3-2.5,1.3c-1.7,0-2.6-1-2.6-2.4c0-2.4,2.5-3.2,5.1-3.2v-0.7c0-1.2-0.7-1.8-2.1-1.8
			c-0.9,0-1.6,0.3-2.4,0.6l-0.2-0.6c0.7-0.4,1.6-0.7,2.6-0.7c1.9,0,2.8,1,2.8,2.7v5.9h-0.6L92.8,43.4z M92.8,42.5v-2.8
			c-2.3,0-4.3,0.6-4.3,2.6c0,1.1,0.8,1.7,2,1.7C91.6,44,92.6,43.2,92.8,42.5z"/>
		<path class="st0" d="M106.3,42.3l0.7,0.3c-0.5,0.9-1.3,2-3.1,2c-2.4,0-3.4-1.4-3.4-3.6v-3.8c0-2.2,1-3.6,3.4-3.6
			c1.8,0,2.6,1.1,3.1,2l-0.6,0.4c-0.6-1.1-1.3-1.6-2.5-1.6c-1.9,0-2.6,1.1-2.6,3v3.6c0,1.8,0.7,3,2.7,3
			C105,43.9,105.7,43.4,106.3,42.3z"/>
		<path class="st0" d="M108.7,41.6v-2.4c0-2,0.9-3.3,2.9-3.3c2.1,0,2.9,1.3,2.9,3.3v1.4h-5.1v1.1c0,1.3,0.5,2.3,2.2,2.3
			c1.1,0,1.7-0.3,2.4-0.7l0.3,0.6c-0.7,0.5-1.5,0.9-2.7,0.9C109.6,44.7,108.7,43.5,108.7,41.6z M109.5,40h4.3v-0.7
			c0-1.7-0.5-2.6-2.2-2.6c-1.6,0-2.2,1-2.2,2.6V40z"/>
		<path class="st0" d="M116.1,43.9l0.3-0.6c0.7,0.4,1.5,0.7,2.3,0.7c1.6,0,2.1-0.7,2.1-1.7c0-2.6-4.5-1.3-4.5-4.2
			c0-1.4,1-2.2,2.6-2.2c1,0,1.8,0.3,2.3,0.7l-0.3,0.6c-0.7-0.4-1.3-0.6-2-0.6c-1.4,0-1.9,0.6-1.9,1.5c0,2.2,4.5,1.1,4.5,4.1
			c0,1.5-0.8,2.5-2.8,2.5C117.7,44.7,116.7,44.3,116.1,43.9z"/>
		<path class="st0" d="M123.2,41.4v-2.3c0-2,0.9-3.3,3-3.3c1.3,0,2,0.6,2.5,1.3l-0.5,0.4c-0.6-0.7-1.1-1-2-1c-1.8,0-2.2,1.1-2.2,3
			v1.7c0,1.6,0.5,2.6,2.2,2.6c0.9,0,1.4-0.3,2-1l0.5,0.4c-0.6,0.8-1.3,1.2-2.5,1.2C124,44.7,123.2,43.4,123.2,41.4z"/>
		<path class="st0" d="M130.2,41.6v-2.4c0-2,0.9-3.3,2.9-3.3c2.1,0,2.9,1.3,2.9,3.3v1.4H131v1.1c0,1.3,0.5,2.3,2.2,2.3
			c1.1,0,1.7-0.3,2.4-0.7l0.3,0.6c-0.7,0.5-1.5,0.9-2.7,0.9C131.1,44.7,130.2,43.5,130.2,41.6z M131,40h4.3v-0.7
			c0-1.7-0.5-2.6-2.2-2.6c-1.6,0-2.2,1-2.2,2.6V40z"/>
	</g>
	<polygon class="st0" points="48.1,20.2 48.1,20.3 48.1,20.2 	"/>
	<polygon class="st0" points="48.5,20.6 48.5,20.6 48.5,20.6 	"/>
	<polygon class="st0" points="48.1,20.2 48.1,20.3 48.1,20.2 	"/>
	<polygon class="st0" points="48.5,20.6 48.5,20.6 48.5,20.6 	"/>
	<path class="st1" d="M48,26.8c0,1.8,1.4,3.2,3.2,3.2c1.8,0,3.2-1.4,3.2-3.2c0-1.8-1.4-3.2-3.2-3.2C49.4,23.6,48,25,48,26.8"/>
	<path class="st0" d="M4.7,7.5c0.3,0,0.4,0.1,0.4,0.5v21.3c0,0.3-0.1,0.5-0.4,0.5H1c-0.3,0-0.4-0.1-0.4-0.5V8c0-0.3,0.1-0.5,0.4-0.5
		H4.7z"/>
	<path class="st0" d="M27.1,7.5c0.3,0,0.4,0.1,0.4,0.5v21.3c0,0.3-0.1,0.5-0.4,0.5h-2.7c-0.7,0-1-0.2-1.4-0.7l-9.4-13.8v14
		c0,0.3-0.1,0.5-0.4,0.5H9.6c-0.3,0-0.4-0.1-0.4-0.5V8c0-0.3,0.1-0.5,0.4-0.5h2.8c1.1,0,1.3,0.3,1.8,0.9l8.9,13V8
		c0-0.3,0.1-0.5,0.4-0.5H27.1z"/>
	<path class="st0" d="M45.9,7.5c0.3,0,0.4,0.1,0.4,0.4V11c0,0.3-0.1,0.4-0.4,0.4h-9.7v5.4H45c0.3,0,0.5,0.1,0.5,0.4v2.9
		c0,0.3-0.2,0.4-0.5,0.4h-8.9v8.6c0,0.3-0.1,0.5-0.4,0.5h-3.6c-0.3,0-0.4-0.1-0.4-0.5V7.9c0-0.3,0.1-0.4,0.4-0.4H45.9z"/>
	<path class="st0" d="M86.5,14.7c0,4.3-1.1,6-4.4,6.7l4.9,7.7c0.2,0.3,0.1,0.6-0.3,0.6H83c-0.7,0-0.9-0.2-1.1-0.6l-4.7-7.4h-2.6v7.6
		c0,0.4-0.1,0.5-0.4,0.5h-3.6c-0.3,0-0.4-0.1-0.4-0.5V8c0-0.3,0.1-0.4,0.4-0.4c2.5-0.2,5.3-0.3,7.6-0.3C84.4,7.3,86.5,9,86.5,14.7z
		 M74.5,11.2v6.9h3.1c3.4,0,4.3-0.5,4.3-3.4c0-2.9-0.9-3.6-4.3-3.6H74.5z"/>
	<path class="st0" d="M112.3,7.5c0.3,0,0.3,0.2,0.4,0.5l2.1,21.3c0,0.3-0.1,0.5-0.4,0.5h-3.6c-0.3,0-0.4-0.1-0.4-0.5L109,15.5
		l-5.2,13.1c-0.1,0.3-0.3,0.4-0.6,0.4h-2.7c-0.3,0-0.5-0.1-0.6-0.4l-5.1-13.1l-1.3,13.8c0,0.3-0.1,0.5-0.4,0.5h-3.6
		c-0.3,0-0.5-0.1-0.4-0.5L91.1,8c0-0.3,0.1-0.5,0.4-0.5h3.5c0.9,0,1.3,0.2,1.6,1.1l5.3,14l5.3-14c0.3-0.9,0.7-1.1,1.6-1.1H112.3z"/>
	<path class="st0" d="M131,10.8l5,18.4c0.1,0.3-0.1,0.5-0.4,0.5H132c-0.3,0-0.3-0.1-0.4-0.5l-1.6-6h-7.7l-1.7,6
		c-0.1,0.3-0.1,0.5-0.4,0.5h-3.6c-0.3,0-0.4-0.1-0.4-0.5l5.1-18.4c0.9-3.1,1.4-3.4,4.8-3.4C129.6,7.3,130.1,7.6,131,10.8z
		 M125.4,11.9l-2.1,7.6h5.7l-2.1-7.6c-0.2-0.7-0.2-0.8-0.8-0.8C125.6,11.1,125.6,11.2,125.4,11.9z"/>
	<path class="st0" d="M57.4,7.3c-7.3,0-9.3,2.6-9.3,11.3c0,0.6,0,1.1,0,1.6c0,0,0,0,0,0c0,0.2,0.2,0.4,0.4,0.4h0h3.8c0,0,0,0,0,0
		c0,0,0,0,0,0c0.2,0,0.4-0.2,0.4-0.4c0-0.6,0-0.9,0-1.6c0-5.6,0.8-7.4,4.7-7.4c4,0,4.7,1.7,4.7,7.4c0,5.4-0.7,7.2-4.4,7.3
		c-0.1,0-0.2,0-0.3,0.1c0,0-0.1,0-0.1,0.2c0,0.8,0,3.4,0,3.4c0,0,0,0.1,0.1,0.2c0.1,0.1,0.2,0.1,0.4,0.1c6.9-0.1,8.8-2.7,8.8-11.2
		C66.7,9.9,64.7,7.3,57.4,7.3z"/>
</g>
</svg>
